# xmcd CD database file
#
# Track frame offsets:
#	150
#	29800
#	47825
#	61400
#
# Disc length: 1211 seconds
#
# Revision: 0
# Processed by: cddbd v1.5PL3 Copyright (c) Steve Scherf et al.
# Submitted via: CDex 1.51
#
DISCID=3604b904
DTITLE=モーニング娘。さくら組 - さくら満開 (EP)
DYEAR=2004
DGENRE=Pop
TTITLE0=さくら満開
TTITLE1=Say Yeah!-もっとミラクルナイト-（モーニング娘。さくら組Version）
TTITLE2=抱いてHold On Me!（モーニング娘。さくら組Version）
TTITLE3=さくら満開 (Instrumental)
EXTD=YEAR: 2004
EXTT0=
EXTT1=
EXTT2=
EXTT3=
PLAYORDER=
